<?xml version="1.0" encoding="UTF-8"?><svg id="a" xmlns="http://www.w3.org/2000/svg" viewBox="0 0 276.6 276.6"><defs><style>.b{fill:#8acbc1;}.c{fill:#2e4053;}</style></defs><rect class="b" x="-6.79" y="-5.24" width="287.78" height="281.84"/><g><path class="c" d="M46.26,93.53c0,3.84-2.9,6.6-6.94,6.6s-6.94-2.76-6.94-6.6,3.03-6.54,6.94-6.54,6.94,2.76,6.94,6.54Zm-12.67,10.99h11.46v37.07h-11.46v-37.07Z"/><path class="c" d="M113.35,104.45v.07h11.19v10.78h-11.19v26.28h-11.46v-26.28h-6.34v-10.78h6.34v-.67c0-10.92,8.29-15.03,15.7-15.03,3.03,0,6.74,.67,9.1,1.82l-2.02,9.23-1.48-.4c-1.55-.4-2.97-.61-4.25-.61-3.57,0-5.59,1.55-5.59,5.59Z"/><path class="c" d="M167.54,123.05c0,11.19-8.56,19.41-19.41,19.41s-19.41-8.29-19.41-19.41,8.69-19.41,19.41-19.41,19.41,8.22,19.41,19.41Zm-27.23,0c0,5.19,3.44,8.49,7.82,8.49s7.82-3.3,7.82-8.49-3.37-8.49-7.82-8.49-7.82,3.37-7.82,8.49Z"/><path class="c" d="M85.99,170.19c0-10.99,8.09-19.41,19.48-19.41,9.24,0,17.52,5.59,18.67,15.5h-11.8c-.87-3.57-3.84-4.92-6.87-4.92-5.05,0-7.88,3.64-7.88,8.83s3.03,8.83,7.82,8.83c3.1,0,6.07-1.48,6.94-4.99h11.8c-1.21,10.24-9.7,15.57-18.74,15.57-11.32,0-19.41-8.42-19.41-19.41Z"/><path class="c" d="M167.54,151.66l-.07,37.07h-11.46v-3.98c-2.36,2.9-5.73,4.85-10.45,4.85-9.44,0-16.71-7.95-16.71-19.41s7.41-19.41,16.65-19.41c4.72,0,8.22,2.02,10.58,5.05v-4.18h11.46Zm-11.46,18.53c0-5.12-3.37-8.49-7.82-8.49s-7.82,3.37-7.82,8.49,3.44,8.49,7.82,8.49,7.82-3.3,7.82-8.49Z"/><path class="c" d="M190.05,151.59v.07h11.19v10.78h-11.19v26.28h-11.46v-26.28h-6.34v-10.78h6.34v-.67c0-10.92,8.29-15.03,15.7-15.03,3.03,0,6.74,.67,9.1,1.82l-2.02,9.23-1.48-.4c-1.55-.4-2.97-.61-4.25-.61-3.57,0-5.59,1.55-5.59,5.59Z"/><path class="c" d="M244.11,172.62h-27.03c.54,5.73,4.18,8.15,8.15,8.15,3.1,0,5.66-1.48,6.54-4.18h11.79c-2.56,9.17-10.31,13.01-18.33,13.01-11.86,0-19.81-8.42-19.81-19.41s8.02-19.41,19.54-19.41c12.27,0,20.29,9.64,19.14,21.84Zm-26.69-6.94h14.76c-.74-3.57-3.17-6.07-7.28-6.07s-6.54,2.49-7.48,6.07Z"/><path class="c" d="M72.17,103.58c-10.16,0-18.4,7.8-18.4,18.4v19.6h10.99v-19.6c0-4.86,3.19-8.05,7.41-8.05s7.41,3.19,7.41,8.05v19.6h10.99v-19.6c0-10.61-8.24-18.4-18.4-18.4Z"/></g></svg>